<svg width="187" height="186" viewBox="0 0 187 186" fill="none" xmlns="http://www.w3.org/2000/svg">
<mask id="mask0_922_435" style="mask-type:alpha" maskUnits="userSpaceOnUse" x="0" y="0" width="187" height="186">
<rect x="0.83606" width="186" height="186" fill="#D9D9D9"/>
</mask>
<g mask="url(#mask0_922_435)">
<path d="M67.7429 174.375L53.0179 149.317L24.2151 143.245L27.3151 114.7L8.58527 93L27.3151 71.4298L24.2151 42.8827L53.0179 36.8125L67.7429 11.625L93.8353 23.3798L119.928 11.625L134.78 36.8125L163.455 42.8827L160.355 71.4298L179.085 93L160.355 114.7L163.455 143.245L134.78 149.317L119.928 174.375L93.8353 162.62L67.7429 174.375ZM85.5679 119.35L129.485 75.6923L120.055 66.65L85.5679 100.88L67.7429 82.6673L58.1853 92.0952L85.5679 119.35Z" fill="#234940"/>
</g>
</svg>
