<svg width="187" height="186" viewBox="0 0 187 186" fill="none" xmlns="http://www.w3.org/2000/svg">
<mask id="mask0_922_441" style="mask-type:alpha" maskUnits="userSpaceOnUse" x="0" y="0" width="187" height="186">
<rect x="0.83606" width="186" height="186" fill="#D9D9D9"/>
</mask>
<g mask="url(#mask0_922_441)">
<path d="M93.8368 170.5C83.0733 170.5 72.977 168.487 63.5479 164.46C54.1187 160.436 45.9056 154.925 38.9087 147.928C31.9117 140.931 26.4008 132.718 22.376 123.289C18.3499 113.859 16.3368 103.763 16.3368 92.9996C16.3368 82.2155 18.3499 72.114 22.376 62.6951C26.4008 53.2763 31.9117 45.0684 38.9087 38.0715C45.9056 31.0745 54.1187 25.5636 63.5479 21.5388C72.977 17.5126 83.0733 15.4996 93.8368 15.4996C104.621 15.4996 114.722 17.5126 124.141 21.5388C133.56 25.5636 141.768 31.0745 148.765 38.0715C155.762 45.0684 161.273 53.2763 165.298 62.6951C169.324 72.114 171.337 82.2155 171.337 92.9996C171.337 103.763 169.324 113.859 165.298 123.289C161.273 132.718 155.762 140.931 148.765 147.928C141.768 154.925 133.56 160.436 124.141 164.46C114.722 168.487 104.621 170.5 93.8368 170.5ZM53.4302 82.9246C55.267 82.9246 56.7989 82.3033 58.026 81.0607C59.2531 79.8194 59.8666 78.2804 59.8666 76.4436C59.8666 74.6069 59.2453 73.075 58.0027 71.8479C56.7601 70.6208 55.2211 70.0073 53.3857 70.0073C51.5489 70.0073 50.017 70.6286 48.7899 71.8711C47.5628 73.1137 46.9493 74.6528 46.9493 76.4882C46.9493 78.325 47.5706 79.8569 48.8132 81.084C50.0545 82.311 51.5935 82.9246 53.4302 82.9246ZM78.1004 58.8996C79.9372 58.8996 81.4691 58.2783 82.6962 57.0357C83.9233 55.7944 84.5368 54.2554 84.5368 52.4186C84.5368 50.5819 83.9155 49.05 82.6729 47.8229C81.4316 46.5958 79.8926 45.9823 78.0559 45.9823C76.2191 45.9823 74.6872 46.6036 73.4601 47.8461C72.233 49.0887 71.6195 50.6277 71.6195 52.4632C71.6195 54.3 72.2408 55.8319 73.4834 57.059C74.7259 58.286 76.265 58.8996 78.1004 58.8996ZM134.418 82.9246C136.254 82.9246 137.786 82.3033 139.013 81.0607C140.241 79.8194 140.854 78.2804 140.854 76.4436C140.854 74.6069 140.233 73.075 138.99 71.8479C137.748 70.6208 136.209 70.0073 134.373 70.0073C132.536 70.0073 131.005 70.6286 129.777 71.8711C128.55 73.1137 127.937 74.6528 127.937 76.4882C127.937 78.325 128.558 79.8569 129.801 81.084C131.042 82.311 132.581 82.9246 134.418 82.9246ZM93.8271 107.595C97.8377 107.595 101.275 106.166 104.138 103.307C107.001 100.449 108.432 97.0128 108.432 92.9996C108.432 91.1435 108.088 89.3235 107.399 87.5397C106.711 85.7546 105.721 84.2162 104.429 82.9246L116.569 53.9919C117.302 52.3553 117.377 50.7298 116.796 49.1152C116.215 47.5006 115.091 46.3271 113.425 45.5948C111.862 44.8637 110.224 44.8501 108.509 45.5541C106.797 46.258 105.608 47.4774 104.944 49.2121L92.5445 78.4044C88.756 78.7919 85.5914 80.3742 83.0507 83.1513C80.5113 85.9283 79.2416 89.2111 79.2416 92.9996C79.2416 97.0128 80.6696 100.449 83.5254 103.307C86.3813 106.166 89.8152 107.595 93.8271 107.595ZM61.157 148.8C66.281 145.871 71.5988 143.654 77.1104 142.148C82.6206 140.641 88.1961 139.887 93.8368 139.887C99.4775 139.887 105.053 140.641 110.563 142.148C116.075 143.654 121.393 145.871 126.517 148.8L138.142 140.145C131.338 135.71 124.256 132.406 116.893 130.233C109.531 128.057 101.866 126.97 93.9007 126.97C85.9363 126.97 78.2509 128.057 70.8445 130.233C63.4394 132.406 56.3785 135.71 49.6618 140.145L61.157 148.8Z" fill="#234940"/>
</g>
</svg>
