<svg width="187" height="186" viewBox="0 0 187 186" fill="none" xmlns="http://www.w3.org/2000/svg">
<mask id="mask0_922_438" style="mask-type:alpha" maskUnits="userSpaceOnUse" x="0" y="0" width="187" height="186">
<rect x="0.83606" width="186" height="186" fill="#D9D9D9"/>
</mask>
<g mask="url(#mask0_922_438)">
<path d="M27.9611 162.75C24.8611 162.75 22.1486 161.588 19.8236 159.263C17.4986 156.938 16.3361 154.225 16.3361 151.125V58.1251C16.3361 55.0251 17.4986 52.3126 19.8236 49.9876C22.1486 47.6626 24.8611 46.5001 27.9611 46.5001H62.8361V27.1251C62.8361 24.0251 63.9986 21.3126 66.3236 18.9876C68.6486 16.6626 71.3611 15.5001 74.4611 15.5001H113.211C116.311 15.5001 119.024 16.6626 121.349 18.9876C123.674 21.3126 124.836 24.0251 124.836 27.1251V46.5001H159.711C162.811 46.5001 165.524 47.6626 167.849 49.9876C170.174 52.3126 171.336 55.0251 171.336 58.1251V151.125C171.336 154.225 170.174 156.938 167.849 159.263C165.524 161.588 162.811 162.75 159.711 162.75H27.9611ZM74.4611 46.5001H113.211V27.1251H74.4611V46.5001Z" fill="#234940"/>
</g>
</svg>
